<svg version="1.2" xmlns="http://www.w3.org/2000/svg" viewBox="0 0 512 512" width="512" height="512">
	<title>circle-user-solid-svg</title>
	<style>
		.s0 { fill: #313940 } 
	</style>
	<path id="Layer" fill-rule="evenodd" class="s0" d="m0 256c0-67.9 27-133 75-181 48-48 113.1-75 181-75 67.9 0 133 27 181 75 48 48 75 113.1 75 181 0 67.9-27 133-75 181-48 48-113.1 75-181 75-67.9 0-133-27-181-75-48-48-75-113.1-75-181zm399 128.2c-22.1-38.4-63.6-64.2-111-64.2h-64c-47.4 0-88.9 25.8-111 64.2 35.2 39.2 86.2 63.8 143 63.8 56.8 0 107.8-24.7 143-63.8zm-143-112.2c19.1 0 37.4-7.6 50.9-21.1 13.5-13.5 21.1-31.8 21.1-50.9 0-19.1-7.6-37.4-21.1-50.9-13.5-13.5-31.8-21.1-50.9-21.1-19.1 0-37.4 7.6-50.9 21.1-13.5 13.5-21.1 31.8-21.1 50.9 0 19.1 7.6 37.4 21.1 50.9 13.5 13.5 31.8 21.1 50.9 21.1z"/>
</svg>